<?xml version="1.0" encoding="utf-8"?>
<!-- Generator: Adobe Illustrator 26.3.1, SVG Export Plug-In . SVG Version: 6.00 Build 0)  -->
<svg version="1.1" id="Layer_1" xmlns="http://www.w3.org/2000/svg" xmlns:xlink="http://www.w3.org/1999/xlink" x="0px" y="0px"
	 viewBox="0 0 500 183.7" style="enable-background:new 0 0 500 183.7;" xml:space="preserve">
<style type="text/css">
	.st0{fill:#FFFFFF;}
	.st1{fill:#FF7443;}
</style>
<g>
	<path class="st0" d="M31.3,156.7c-3.4,8.6-5.2,14.1-6.2,17.1h-0.9c-1.3-4.1-3.4-10-6.3-17.2L10,136.2H6.3l15.6,40.1h5.3l15.6-40.1
		h-3.7L31.3,156.7z"/>
	<path class="st0" d="M61.1,136.3h-1.9l-15.1,40.1h3.2l4-11.2l0.4-0.3h18.7l0.4,0.3l4.1,11.2h3.2L63,136.3H61.1z M67.6,156.1l2,5.7
		l-0.4,0.6H53.1l-0.4-0.6l2-5.7l0.7-1.9c2.8-7.7,4.8-12.3,5.7-15.4c0.9,2.7,3.1,7.7,5.6,15L67.6,156.1z"/>
	<path class="st0" d="M119.4,156.3c0,6.5,0.1,11.5,0.2,15.7l-0.8,0.3c-1.8-2.9-4.6-7.3-8.5-13.2l-2.2-3.4l-12.8-19.3h-4v40.1h3.1
		v-20c0-6.5-0.1-11.5-0.2-15.7l0.8-0.3c1.9,3.1,5.4,8.5,10.6,16.5l12.8,19.4h4v-40.1h-3.1L119.4,156.3L119.4,156.3z"/>
	<path class="st0" d="M180.7,167.3l6.2-8l-2.1-1.5l-5.7,7.3h-0.7l-9.4-10.9l0.1-0.7c6.4-3.8,8.2-6.1,8.2-10.3c0-4.3-3.8-7.6-8.8-7.6
		c-5.2,0-9.1,3.4-9.1,7.9c0,3.2,1.8,5.8,4.7,9.1l-0.1,0.7c-8.1,4.8-10.8,7.4-10.9,13.4c0,6,5.1,10.4,12,10.4c5.3,0,9-2,13.2-7.1h0.7
		l5.4,6.3h3.6l-7.3-8.6L180.7,167.3z M162.3,143.6c0-3.4,2.6-5.8,6.2-5.8c3.6,0,6.2,2.3,6.2,5.5c0,3.3-1.8,5.4-7.2,8.6l-0.6-0.1
		C163.7,148.1,162.3,146.3,162.3,143.6z M165.3,174.9c-5.3,0-9.1-3.5-9.1-8.4c0-4.5,2.1-7,9.6-11.4l0.6,0.1l10.5,12.1v0.6
		C173.1,172.5,170.2,174.9,165.3,174.9z"/>
	<path class="st0" d="M234.1,174.7c-9,0-15.3-7.5-15.3-18.3c0-11,6.3-18.3,15.7-18.3c4,0,7.5,1.4,11.7,4.8l1.7-2.1
		c-4.7-3.8-8.5-5.3-13.4-5.3c-11.7,0-18.9,8-18.9,20.9c0,12.7,7.3,20.9,18.5,20.9c2.9,0,5.5-0.5,7.7-1.6c2.1-1,4.4-2.7,7-5.2
		l-1.9-2.1C242.6,172.5,239.3,174.7,234.1,174.7z"/>
	<path class="st0" d="M272.9,136.3l-15.1,40.1h3.2l4-11.2l0.4-0.3h18.7l0.4,0.3l4.1,11.2h3.2l-15.1-40.1L272.9,136.3L272.9,136.3z
		 M281.2,156.1l2,5.7l-0.4,0.6h-16.1l-0.4-0.6l2-5.7l0.7-1.9c2.8-7.7,4.8-12.4,5.7-15.4c0.9,2.7,3.1,7.7,5.6,15L281.2,156.1z"/>
	<path class="st0" d="M322.4,159.1c6.2-0.9,10-5.2,10-11.3c0-7.1-4.9-11.5-12.7-11.5h-15.8v40.1h3.2v-16.6l0.5-0.5h10.5l0.4,0.2
		l11.4,16.9h3.6l-11.3-16.6L322.4,159.1z M307.5,156.8l-0.5-0.5v-17.2l0.5-0.5h11.4c6.4,0,10.3,3.4,10.3,9c0,5.8-3.7,9.1-10.2,9.1
		L307.5,156.8L307.5,156.8z"/>
	<polygon class="st0" points="389.1,154 388.6,154.4 364.9,154.4 364.5,154 364.5,136.3 361.3,136.3 361.3,176.4 364.5,176.4 
		364.5,157.4 364.9,156.9 388.6,156.9 389.1,157.4 389.1,176.4 392.3,176.4 392.3,136.3 389.1,136.3 	"/>
	<rect x="407.2" y="136.3" class="st0" width="3.2" height="40.1"/>
	<path class="st0" d="M442.8,159.1c6.2-0.9,10-5.2,10-11.3c0-7.1-4.9-11.5-12.7-11.5h-15.8v40.1h3.2v-16.6l0.5-0.5h10.5l0.4,0.2
		l11.4,16.9h3.6l-11.3-16.6L442.8,159.1z M427.9,156.8l-0.5-0.5v-17.2l0.5-0.5h11.4c6.4,0,10.3,3.4,10.3,9c0,5.8-3.7,9.1-10.2,9.1
		L427.9,156.8L427.9,156.8z"/>
	<polygon class="st0" points="467.9,173.4 467.9,157.4 468.4,157 488.8,157 488.8,154.5 468.4,154.5 467.9,154.1 467.9,139.2 
		468.4,138.8 490.4,138.8 490.4,136.3 464.7,136.3 464.7,176.4 490.9,176.4 490.9,173.9 468.4,173.9 	"/>
	<path class="st0" d="M170.5,45.7c-4,0-8,0-12,0c-2.6,0-2.6,0-2.6,2.7c0,0.4,0,0.7,0,1.1c0,1.1-0.5,1.4-1.4,0.7
		c-6.3-4.2-13.2-6.1-20.9-5.5c-8.6,0.7-15.7,4.3-21.6,10.4c-5.9,6.1-9.1,13.4-9.5,22c-0.3,5.5,0.5,10.8,3,15.7
		c5.9,11.8,15.3,18.7,28.7,19.9c6.8,0.6,13.1-0.8,18.9-4.4c0.8-0.5,1.6-1.7,2.4-1.3c0.9,0.5,0.5,1.9,0.4,2.9
		c-0.1,1.5,0.5,1.8,1.9,1.8c4.1-0.1,8.2,0,12.3,0c2.4,0,2.5-0.1,2.5-2.5c0-10.1,0-20.2,0-30.4c0-10.3,0-20.7,0-31
		C172.5,45.9,172.4,45.7,170.5,45.7z M137.5,97c-9.7-0.1-18.2-8.6-18.1-18.3c0.1-10,8.4-18.4,18.3-18.4c9.8,0,18.2,8.5,18.1,18.3
		C155.8,88.7,147.3,97.1,137.5,97z"/>
	<path class="st0" d="M226.7,45.8c0,4.5,0,9,0,13.6c0,1.2-0.8,1.4-1.8,1.4c-3.1,0-6.2,0-9.2,0.5c-8.3,1.4-13,6.6-13.1,15.1
		c-0.1,10.8,0,21.7,0,32.5c0,2.7,0,2.7-2.7,2.7c-4,0-8,0-12,0c-2,0-2.1-0.1-2.1-2.1c0-10.3,0-20.6,0-30.8c0-10.2,0-20.5,0-30.7
		c0-2.2,0-2.3,2.2-2.3c4.2,0,8.4,0,12.7,0c1.9,0,2,0.1,2,2c0,0.8,0,1.6,0,2.5c0,0.4-0.1,0.9,0.4,1.1c0.5,0.1,0.7-0.3,1-0.6
		c2.3-2,4.8-3.5,7.7-4.5c4.5-1.5,9.2-1.8,13.9-1.7C226.4,44.5,226.7,45,226.7,45.8z"/>
	<path class="st0" d="M278.5,47.7c0,4.1,0,8.1,0,12.2c0,1.8-0.2,2-2.1,2c-4.5,0-9,0-13.4,0c-1.9,0-2.1,0.2-2.1,2
		c0,7.9,0,15.8,0,23.8c0,1.2,0.2,2.5,0.5,3.6c0.9,2.9,3,4.5,6,4.6c2.4,0.1,4.8,0,7.2-0.5c1.3-0.3,1.8,0.1,1.7,1.5
		c-0.1,4.1,0,8.1,0,12.2c0,0.7,0,1.4-0.8,1.6c-6.1,1.7-12.3,2.7-18.6,1c-6.2-1.7-9.9-6.2-11.8-12.2c-1-3.1-1.2-6.4-1.2-9.6
		c0-3.9,0-7.8,0-11.7c0-4.7,0-9.5,0-14.2c0-1.9-0.2-2.1-2.1-2.2c-2.2,0-4.4,0-6.6,0c-1.3,0-1.7-0.5-1.7-1.8c0-4.2,0-8.4,0-12.6
		c0-1.3,0.5-1.9,1.8-1.8c2.2,0,4.3,0,6.5,0c2,0,2.2-0.2,2.2-2.2c0-5.7,0-11.3,0-17c0-2.3,0.1-2.4,2.3-2.4c4.1,0,8.1,0,12.2,0
		c2.3,0,2.4,0.1,2.4,2.3c0,5.6,0,11.2,0,16.8c0,2.4,0,2.4,2.4,2.4c4.4,0,8.7,0,13.1,0C278.3,45.7,278.5,45.9,278.5,47.7z"/>
	<path class="st0" d="M348.4,62.3c-3.8-7.7-9.7-12.9-17.7-15.7c-5-1.7-10.1-2.2-15.3-1.8c-4.4,0.4-8.7,1.4-12.5,3.6
		c-9.9,5.6-15.9,14-17.6,25.2c-1.4,9.6,0.5,18.6,6.3,26.4c8.2,10.9,19.6,14.5,32.9,13.3c9-0.8,16.3-5.1,22.1-11.9
		c0.8-1,0.7-1.5-0.2-2.2c-2.9-2.3-5.8-4.6-8.7-7c-1.1-1-1.9-1.1-3.1,0.1c-4.6,4.4-10,6.5-16.4,5.9c-7.7-0.7-13.1-4.4-15.9-11.7
		c-0.7-1.9-0.5-2.2,1.6-2.2c7.7,0,15.3,0,23,0c7.7,0,15.4,0,23.1,0c1.2,0,2-0.2,2-1.6C352.3,75.5,351.5,68.7,348.4,62.3z
		 M333.3,71.9c-4.9,0-9.9,0-14.8,0c-4.8,0-9.7,0-14.5,0c-1.9,0-2.1-0.3-1.3-2c3-6.7,9.9-10.6,17.3-10c3.7,0.3,7.2,1,10.2,3.3
		c2.3,1.8,3.6,4.2,4.4,6.9C335.1,71.4,334.7,71.9,333.3,71.9z"/>
	<path class="st0" d="M422.3,98.6c-7.2,9.2-16.5,14.8-28.4,14.8c-15.2,0-26.1-7.2-32.6-20.9c-2-4.2-3-8.8-2.7-12.9
		c-0.4-17.7,13.1-32.5,29.6-34.7c14.1-1.9,25.2,3.4,33.9,14.3c0.8,1,0.8,1.6-0.4,2.3c-3.8,2.1-7.5,4.3-11.2,6.6
		c-1.2,0.8-2.1,0.6-3.1-0.4c-1.8-1.8-3.7-3.5-6-4.9c-6.1-3.6-14.7-2.5-20.2,2.6c-8.6,8.1-7.5,22.3,2.3,29c5.9,4,13.8,3.9,19.5-0.3
		c1.7-1.2,3.3-2.6,4.7-4.2c0.7-0.7,1.3-0.9,2.1-0.3c3.9,2.4,7.8,4.7,11.8,7C422.9,97.2,423,97.7,422.3,98.6z"/>
	<path class="st0" d="M492.5,109.5c0,2-0.1,2.1-2.1,2.1c-4.2,0-8.4,0-12.7,0c-2,0-2.1-0.1-2.1-2.2c0-10.9,0-21.9,0-32.8
		c0-3.4-0.4-6.8-2-9.9c-1.4-2.7-3.7-4.5-6.6-5.4c-3.3-1-6.7-0.8-10.1,0.1c-3.8,1-6.3,3.5-7.6,7.3c-1,3-1.3,6.1-1.3,9.3
		c0,10.4,0,20.8,0,31.2c0,2.5,0,2.5-2.6,2.6c-4.1,0-8.1,0-12.2,0c-2,0-2.1-0.1-2.1-2.1V11.4c0-2.5,0-2.5,2.5-2.5c4.1,0,8.1,0,12.2,0
		c2.1,0,2.2,0.2,2.2,2.2c0,12.6,0,25.2,0,37.8c0,0.6-0.4,1.5,0.4,1.8c0.5,0.2,1-0.6,1.5-0.9c3.5-2.9,7.6-4.5,12.1-4.9
		c5.4-0.6,10.8-0.1,15.9,2.1c7.2,3.2,11.2,9,13.3,16.4c0.8,2.9,1.2,5.9,1.2,9C492.5,84.7,492.5,97.1,492.5,109.5z"/>
	<path class="st0" d="M97.4,21.7c0.7,0.6,0.6,1.1,0,1.8c-3.2,3.5-6.4,7.1-9.5,10.7c-0.9,1-1.4,0.5-2.1-0.2
		c-4.5-4.5-8.5-7.1-14.6-8.8c-10.6-2.9-20.7-1.7-29.9,4.8c-8.8,6.2-13.9,14.8-15.4,25.4c-2.3,16.1,5.6,31.4,20,38.3
		c9.5,4.6,19.2,4.7,28.9,0.2c3.9-1.8,7.5-4.2,10.9-6.7c1.7-1.3,1.7-1.3,3,0.3c2.7,3.3,5.5,6.6,8.2,9.8c0.8,0.9,0.7,1.5-0.2,2.3
		c-7.6,6.9-15.7,11.8-25.6,13.4c-2,0.4-6.8,0.6-9.5,0.6c-14.6,0-27.4-4.7-38-14.9c-9.7-9.3-15-20.8-16-34.2
		C6.7,51.6,10,40,17.3,29.5c7-9.9,16.5-16.5,28.1-20c10.4-3.1,20.9-3,31.4,0C85.2,11.9,91.1,15.6,97.4,21.7z"/>
	<path class="st1" d="M82.7,42.1l-13.9-8l-6.5,11.3c-2.5,4.3-7.1,7-12.1,7H37v16h13.1c5,0,9.6,2.7,12.1,7l6.5,11.3l13.9-8l-6.5-11.3
		c-2.5-4.3-2.5-9.7,0-14L82.7,42.1z"/>
</g>
</svg>
